<svg width="152" height="15" viewBox="0 0 152 15" fill="none" xmlns="http://www.w3.org/2000/svg">
<path d="M1.72818 9.56846C1.72818 9.61113 1.71751 9.66446 1.69618 9.72846C1.69618 9.77113 1.69618 9.83513 1.69618 9.92046C1.69618 10.1338 1.89885 10.3365 2.30418 10.5285C2.70951 10.7205 3.22151 10.9018 3.84018 11.0725C4.48018 11.2218 5.16285 11.3498 5.88818 11.4565C6.63485 11.5418 7.32818 11.5845 7.96818 11.5845C8.16018 11.5845 8.41618 11.5738 8.73618 11.5525C9.07751 11.5311 9.40818 11.4778 9.72818 11.3925C10.0482 11.2858 10.3148 11.1471 10.5282 10.9765C10.7628 10.7845 10.8802 10.5285 10.8802 10.2085C10.8802 9.78179 10.6242 9.48313 10.1122 9.31246C9.60018 9.12046 8.94951 8.98179 8.16018 8.89646C7.39218 8.78979 6.54951 8.68313 5.63218 8.57646C4.73618 8.46979 3.89351 8.28846 3.10418 8.03246C2.33618 7.75513 1.69618 7.37113 1.18418 6.88046C0.67218 6.36846 0.41618 5.66446 0.41618 4.76846C0.41618 4.27779 0.54418 3.75513 0.80018 3.20046C1.05618 2.62446 1.46151 2.10179 2.01618 1.63246C2.57085 1.16313 3.29618 0.779127 4.19218 0.48046C5.10951 0.16046 6.21885 0.000460625 7.52018 0.000460625C8.28818 0.000460625 9.01351 0.0431271 9.69618 0.12846C10.4002 0.213793 11.0295 0.309793 11.5842 0.41646C12.1602 0.523127 12.6402 0.619127 13.0242 0.70446C13.4295 0.789794 13.7175 0.83246 13.8882 0.83246C14.0588 0.83246 14.1975 0.789794 14.3042 0.70446C14.4108 0.597794 14.5068 0.51246 14.5922 0.448461L14.9442 0.57646L13.0242 4.60846L12.6082 4.41646C12.6082 4.37379 12.6082 4.32046 12.6082 4.25646C12.6295 4.19246 12.6402 4.12846 12.6402 4.06446C12.6402 3.97913 12.5122 3.87246 12.2562 3.74446C12.0002 3.61646 11.6588 3.48846 11.2322 3.36046C10.8268 3.23246 10.3575 3.12579 9.82418 3.04046C9.31218 2.93379 8.77885 2.88046 8.22418 2.88046C8.03218 2.88046 7.73351 2.89113 7.32818 2.91246C6.92285 2.91246 6.51751 2.96579 6.11218 3.07246C5.70685 3.15779 5.34418 3.29646 5.02418 3.48846C4.72551 3.65913 4.57618 3.92579 4.57618 4.28846C4.57618 4.67246 4.83218 4.94979 5.34418 5.12046C5.85618 5.26979 6.49618 5.39779 7.26418 5.50446C8.05351 5.58979 8.89618 5.69646 9.79218 5.82446C10.7095 5.93113 11.5522 6.12313 12.3202 6.40046C13.1095 6.67779 13.7602 7.08313 14.2722 7.61646C14.7842 8.12846 15.0402 8.85379 15.0402 9.79246C15.0402 10.4111 14.9015 11.0085 14.6242 11.5845C14.3468 12.1391 13.9202 12.6298 13.3442 13.0565C12.7682 13.4831 12.0322 13.8138 11.1362 14.0485C10.2615 14.2618 9.21618 14.3685 8.00018 14.3685C7.23218 14.3685 6.45351 14.3258 5.66418 14.2405C4.87485 14.1338 4.14951 14.0165 3.48818 13.8885C2.82685 13.7391 2.27218 13.6111 1.82418 13.5045C1.39751 13.3765 1.15218 13.3125 1.08818 13.3125C0.938847 13.3125 0.80018 13.3658 0.67218 13.4725C0.565513 13.5578 0.458846 13.6538 0.35218 13.7605L0.000179768 13.6645L1.31218 9.37646L1.72818 9.56846ZM23.7014 13.3125C23.7014 13.5471 23.7868 13.6965 23.9574 13.7605C24.1281 13.8245 24.3414 13.8671 24.5974 13.8885V14.2725H18.5174V13.8885C18.7734 13.8671 18.9868 13.8245 19.1574 13.7605C19.3281 13.6965 19.4134 13.5471 19.4134 13.3125V1.15246C19.4134 0.917793 19.3281 0.76846 19.1574 0.70446C18.9868 0.64046 18.7734 0.597794 18.5174 0.57646V0.19246H24.5974V0.57646C24.3414 0.597794 24.1281 0.64046 23.9574 0.70446C23.7868 0.76846 23.7014 0.917793 23.7014 1.15246V5.18446H30.7734V1.15246C30.7734 0.917793 30.6881 0.76846 30.5174 0.70446C30.3468 0.64046 30.1334 0.597794 29.8774 0.57646V0.19246H35.9574V0.57646C35.7014 0.597794 35.4881 0.64046 35.3174 0.70446C35.1468 0.76846 35.0614 0.917793 35.0614 1.15246V13.3125C35.0614 13.5471 35.1468 13.6965 35.3174 13.7605C35.4881 13.8245 35.7014 13.8671 35.9574 13.8885V14.2725H29.8774V13.8885C30.1334 13.8671 30.3468 13.8245 30.5174 13.7605C30.6881 13.6965 30.7734 13.5471 30.7734 13.3125V8.44846H23.7014V13.3125ZM52.4372 13.8885C52.5012 13.8885 52.5865 13.8778 52.6932 13.8565C52.7998 13.8351 52.8532 13.7498 52.8532 13.6005C52.8532 13.5151 52.8105 13.3871 52.7252 13.2165C52.6612 13.0245 52.5758 12.8218 52.4692 12.6085C52.3838 12.3951 52.2878 12.1818 52.1812 11.9685C52.0745 11.7551 51.9892 11.5738 51.9252 11.4245H44.5012C44.4585 11.5738 44.3838 11.7551 44.2772 11.9685C44.1918 12.1818 44.0958 12.3951 43.9892 12.6085C43.8825 12.8218 43.7865 13.0245 43.7012 13.2165C43.6158 13.3871 43.5732 13.5151 43.5732 13.6005C43.5732 13.7498 43.6265 13.8351 43.7332 13.8565C43.8398 13.8778 43.9252 13.8885 43.9892 13.8885V14.2725H39.1892V13.8885C39.3172 13.8885 39.4452 13.8671 39.5732 13.8245C39.7012 13.7605 39.7865 13.6751 39.8292 13.5685C40.4692 12.0751 41.1198 10.6031 41.7812 9.15246C42.4425 7.68046 43.0292 6.35779 43.5412 5.18446C44.0745 3.98979 44.5118 3.00846 44.8532 2.24046C45.1945 1.45113 45.3652 1.00313 45.3652 0.896461C45.3652 0.70446 45.2265 0.597794 44.9492 0.57646V0.19246H51.6372V0.57646C51.3598 0.597794 51.2212 0.70446 51.2212 0.896461C51.2212 0.96046 51.3278 1.24846 51.5412 1.76046C51.7758 2.25113 52.0745 2.88046 52.4372 3.64846C52.7998 4.39513 53.1945 5.22713 53.6212 6.14446C54.0692 7.06179 54.5065 7.97913 54.9332 8.89646C55.3812 9.81379 55.7972 10.6885 56.1812 11.5205C56.5652 12.3311 56.8745 13.0138 57.1092 13.5685C57.1518 13.6751 57.2372 13.7605 57.3652 13.8245C57.4932 13.8671 57.6212 13.8885 57.7492 13.8885V14.2725H52.4372V13.8885ZM48.1492 3.52046L45.5252 9.12046H50.8372L48.1492 3.52046ZM77.7809 13.3125C77.7809 13.5471 77.8663 13.6965 78.0369 13.7605C78.2076 13.8245 78.4209 13.8671 78.6769 13.8885V14.2725H72.7569V13.8885C72.9276 13.8885 73.1196 13.8671 73.3329 13.8245C73.5676 13.7818 73.6849 13.6645 73.6849 13.4725C73.6849 13.2805 73.4503 12.9285 72.9809 12.4165C72.5116 11.8831 71.9036 11.2325 71.1569 10.4645C70.4316 9.69646 69.6103 8.84313 68.6929 7.90446C67.7756 6.94446 66.8689 5.93113 65.9729 4.86446L65.9089 4.92846V13.3125C65.9089 13.5471 65.9836 13.6965 66.1329 13.7605C66.3036 13.8245 66.5063 13.8671 66.7409 13.8885V14.2725H61.2689V13.8885C61.4823 13.8671 61.6636 13.8245 61.8129 13.7605C61.9836 13.6965 62.0689 13.5471 62.0689 13.3125V1.15246C62.0689 0.917793 61.9836 0.76846 61.8129 0.70446C61.6423 0.64046 61.4396 0.597794 61.2049 0.57646V0.19246H68.8209V0.57646C68.6716 0.597794 68.5223 0.64046 68.3729 0.70446C68.2236 0.76846 68.1489 0.917793 68.1489 1.15246C68.1489 1.19513 68.3196 1.41913 68.6609 1.82446C69.0236 2.20846 69.4823 2.69913 70.0369 3.29646C70.5916 3.89379 71.2103 4.55513 71.8929 5.28046C72.5756 6.00579 73.2583 6.73113 73.9409 7.45646V1.15246C73.9409 0.917793 73.8556 0.76846 73.6849 0.70446C73.5143 0.64046 73.3009 0.597794 73.0449 0.57646V0.19246H78.6769V0.57646C78.4209 0.597794 78.2076 0.64046 78.0369 0.70446C77.8663 0.76846 77.7809 0.917793 77.7809 1.15246V13.3125ZM98.0687 10.9765C98.0687 11.1898 98.122 11.3818 98.2287 11.5525C98.3353 11.7231 98.4847 11.8085 98.6767 11.8085H98.9647V12.1925C98.4527 12.4485 97.866 12.7151 97.2047 12.9925C96.5433 13.2485 95.8287 13.4831 95.0607 13.6965C94.2927 13.9098 93.5033 14.0805 92.6927 14.2085C91.882 14.3151 91.0713 14.3685 90.2607 14.3685C89.0233 14.3685 87.882 14.2405 86.8367 13.9845C85.7913 13.7285 84.8953 13.3125 84.1487 12.7365C83.4233 12.1391 82.8473 11.3925 82.4207 10.4965C82.0153 9.57913 81.8127 8.49113 81.8127 7.23246C81.8127 5.97379 82.0473 4.89646 82.5167 4.00046C82.986 3.08313 83.6153 2.33646 84.4047 1.76046C85.194 1.16313 86.09 0.725794 87.0927 0.448461C88.1167 0.149794 89.1727 0.000460625 90.2607 0.000460625C91.0713 0.000460625 91.8073 0.0537939 92.4687 0.16046C93.1513 0.245794 93.7487 0.352461 94.2607 0.48046C94.7727 0.60846 95.1887 0.725794 95.5087 0.83246C95.85 0.917794 96.074 0.960461 96.1807 0.960461C96.3513 0.960461 96.458 0.92846 96.5007 0.86446C96.5647 0.80046 96.6393 0.725794 96.7247 0.64046L97.1087 0.70446L95.4447 4.92846L95.0607 4.73646V4.51246C95.0607 4.32046 94.9113 4.13913 94.6127 3.96846C94.3353 3.79779 93.9833 3.64846 93.5567 3.52046C93.13 3.37113 92.6713 3.26446 92.1807 3.20046C91.7113 3.11513 91.2847 3.07246 90.9007 3.07246C90.2393 3.07246 89.61 3.14713 89.0127 3.29646C88.4153 3.44579 87.8927 3.69113 87.4447 4.03246C87.018 4.37379 86.6767 4.81113 86.4207 5.34446C86.1647 5.85646 86.0367 6.48579 86.0367 7.23246C86.0367 8.00046 86.1647 8.66179 86.4207 9.21646C86.6767 9.74979 87.0287 10.1978 87.4767 10.5605C87.9247 10.9018 88.4473 11.1578 89.0447 11.3285C89.642 11.4991 90.2927 11.5845 90.9967 11.5845C91.53 11.5845 92.0527 11.5525 92.5647 11.4885C93.0767 11.4031 93.5887 11.2751 94.1007 11.1045V9.02446H91.4127C91.1567 9.02446 90.9967 9.12046 90.9327 9.31246C90.8687 9.50446 90.8367 9.66446 90.8367 9.79246H90.4527V5.82446H90.8367C90.8367 5.95246 90.8687 6.11246 90.9327 6.30446C90.9967 6.49646 91.1567 6.59246 91.4127 6.59246H98.0687V10.9765ZM107.295 13.3125C107.295 13.5471 107.381 13.6965 107.551 13.7605C107.722 13.8245 107.935 13.8671 108.191 13.8885V14.2725H102.111V13.8885C102.367 13.8671 102.581 13.8245 102.751 13.7605C102.922 13.6965 103.007 13.5471 103.007 13.3125V1.15246C103.007 0.917793 102.922 0.76846 102.751 0.70446C102.581 0.64046 102.367 0.597794 102.111 0.57646V0.19246H108.191V0.57646C107.935 0.597794 107.722 0.64046 107.551 0.70446C107.381 0.76846 107.295 0.917793 107.295 1.15246V5.18446H114.367V1.15246C114.367 0.917793 114.282 0.76846 114.111 0.70446C113.941 0.64046 113.727 0.597794 113.471 0.57646V0.19246H119.551V0.57646C119.295 0.597794 119.082 0.64046 118.911 0.70446C118.741 0.76846 118.655 0.917793 118.655 1.15246V13.3125C118.655 13.5471 118.741 13.6965 118.911 13.7605C119.082 13.8245 119.295 13.8671 119.551 13.8885V14.2725H113.471V13.8885C113.727 13.8671 113.941 13.8245 114.111 13.7605C114.282 13.6965 114.367 13.5471 114.367 13.3125V8.44846H107.295V13.3125ZM136.031 13.8885C136.095 13.8885 136.18 13.8778 136.287 13.8565C136.394 13.8351 136.447 13.7498 136.447 13.6005C136.447 13.5151 136.404 13.3871 136.319 13.2165C136.255 13.0245 136.17 12.8218 136.063 12.6085C135.978 12.3951 135.882 12.1818 135.775 11.9685C135.668 11.7551 135.583 11.5738 135.519 11.4245H128.095C128.052 11.5738 127.978 11.7551 127.871 11.9685C127.786 12.1818 127.69 12.3951 127.583 12.6085C127.476 12.8218 127.38 13.0245 127.295 13.2165C127.21 13.3871 127.167 13.5151 127.167 13.6005C127.167 13.7498 127.22 13.8351 127.327 13.8565C127.434 13.8778 127.519 13.8885 127.583 13.8885V14.2725H122.783V13.8885C122.911 13.8885 123.039 13.8671 123.167 13.8245C123.295 13.7605 123.38 13.6751 123.423 13.5685C124.063 12.0751 124.714 10.6031 125.375 9.15246C126.036 7.68046 126.623 6.35779 127.135 5.18446C127.668 3.98979 128.106 3.00846 128.447 2.24046C128.788 1.45113 128.959 1.00313 128.959 0.896461C128.959 0.70446 128.82 0.597794 128.543 0.57646V0.19246H135.231V0.57646C134.954 0.597794 134.815 0.70446 134.815 0.896461C134.815 0.96046 134.922 1.24846 135.135 1.76046C135.37 2.25113 135.668 2.88046 136.031 3.64846C136.394 4.39513 136.788 5.22713 137.215 6.14446C137.663 7.06179 138.1 7.97913 138.527 8.89646C138.975 9.81379 139.391 10.6885 139.775 11.5205C140.159 12.3311 140.468 13.0138 140.703 13.5685C140.746 13.6751 140.831 13.7605 140.959 13.8245C141.087 13.8671 141.215 13.8885 141.343 13.8885V14.2725H136.031V13.8885ZM131.743 3.52046L129.119 9.12046H134.431L131.743 3.52046ZM151.359 0.57646C151.039 0.597794 150.783 0.64046 150.591 0.70446C150.42 0.76846 150.335 0.917793 150.335 1.15246V13.3125C150.335 13.5471 150.42 13.6965 150.591 13.7605C150.783 13.8245 151.039 13.8671 151.359 13.8885V14.2725H145.023V13.8885C145.343 13.8671 145.588 13.8245 145.759 13.7605C145.951 13.6965 146.047 13.5471 146.047 13.3125V1.15246C146.047 0.917793 145.951 0.76846 145.759 0.70446C145.588 0.64046 145.343 0.597794 145.023 0.57646V0.19246H151.359V0.57646Z" fill="white"/>
</svg>
