<svg width="15" height="15" viewBox="0 0 15 15" fill="none" xmlns="http://www.w3.org/2000/svg">
<path d="M8.228 6.93578H14.4306C14.5879 6.95572 14.7325 7.03235 14.8373 7.15129C14.9422 7.27024 15 7.42334 15 7.58189C15 7.74044 14.9422 7.89354 14.8373 8.01249C14.7325 8.13143 14.5879 8.20806 14.4306 8.228H8.228V14.4306C8.20806 14.5879 8.13143 14.7325 8.01249 14.8373C7.89354 14.9422 7.74044 15 7.58189 15C7.42334 15 7.27024 14.9422 7.15129 14.8373C7.03235 14.7325 6.95572 14.5879 6.93578 14.4306V8.228H0.733165C0.641458 8.23962 0.548327 8.23159 0.459964 8.20443C0.371602 8.17728 0.290032 8.13163 0.220679 8.07051C0.151325 8.00939 0.0957775 7.93421 0.0577282 7.84996C0.0196789 7.76571 0 7.67433 0 7.58189C0 7.48945 0.0196789 7.39807 0.0577282 7.31382C0.0957775 7.22957 0.151325 7.15439 0.220679 7.09327C0.290032 7.03216 0.371602 6.9865 0.459964 6.95935C0.548327 6.93219 0.641458 6.92416 0.733165 6.93578H6.93578V0.733165C6.92416 0.641458 6.93219 0.548327 6.95935 0.459964C6.9865 0.371602 7.03216 0.290032 7.09327 0.220679C7.15439 0.151325 7.22957 0.0957775 7.31382 0.0577282C7.39807 0.0196789 7.48945 0 7.58189 0C7.67433 0 7.76571 0.0196789 7.84996 0.0577282C7.93421 0.0957775 8.00939 0.151325 8.07051 0.220679C8.13163 0.290032 8.17728 0.371602 8.20443 0.459964C8.23159 0.548327 8.23962 0.641458 8.228 0.733165V6.93578Z" fill="white"/>
</svg>
