<svg width="14" height="15" viewBox="0 0 14 15" fill="none" xmlns="http://www.w3.org/2000/svg">
<path d="M1.8125 4.04594C1.96168 4.04594 2.10476 4.1052 2.21025 4.21069C2.31574 4.31618 2.375 4.45925 2.375 4.60844V12.525C2.375 12.67 2.40357 12.8136 2.45907 12.9476C2.51458 13.0816 2.59593 13.2033 2.69848 13.3058C2.80104 13.4083 2.92279 13.4896 3.05677 13.5451C3.19076 13.6006 3.33436 13.6291 3.47937 13.6291H10.1459C10.4388 13.6291 10.7196 13.5127 10.9266 13.3057C11.1337 13.0986 11.25 12.8178 11.25 12.525V4.60844C11.25 4.45925 11.3093 4.31618 11.4148 4.21069C11.5202 4.1052 11.6633 4.04594 11.8125 4.04594C11.9617 4.04594 12.1048 4.1052 12.2102 4.21069C12.3157 4.31618 12.375 4.45925 12.375 4.60844V12.525C12.375 13.1162 12.1402 13.6832 11.7221 14.1012C11.3041 14.5192 10.7371 14.7541 10.1459 14.7541H3.47906C2.88788 14.7541 2.32091 14.5192 1.90288 14.1012C1.48485 13.6832 1.25 13.1162 1.25 12.525V4.60844C1.25 4.45925 1.30926 4.31618 1.41475 4.21069C1.52024 4.1052 1.66332 4.04594 1.8125 4.04594ZM4.72937 2.79156C4.87856 2.79156 5.02163 2.7323 5.12712 2.62681C5.23261 2.52132 5.29188 2.37825 5.29188 2.22906C5.29183 2.08405 5.32036 1.94045 5.37583 1.80646C5.43129 1.67247 5.51261 1.55073 5.61514 1.44817C5.71766 1.34562 5.83939 1.26426 5.97336 1.20876C6.10733 1.15326 6.25092 1.12469 6.39594 1.12469H7.22906C7.3741 1.12465 7.51773 1.15318 7.65174 1.20867C7.78574 1.26415 7.90751 1.3455 8.01006 1.44806C8.11262 1.55062 8.19397 1.67238 8.24946 1.80639C8.30494 1.9404 8.33348 2.08402 8.33344 2.22906C8.33344 2.37825 8.3927 2.52132 8.49819 2.62681C8.60368 2.7323 8.74675 2.79156 8.89594 2.79156C9.04512 2.79156 9.1882 2.7323 9.29368 2.62681C9.39917 2.52132 9.45844 2.37825 9.45844 2.22906C9.45849 1.64288 9.22763 1.08027 8.81587 0.663064C8.4041 0.245859 7.84457 0.00764265 7.25844 0H6.36688C5.78077 0.00772342 5.22128 0.245966 4.80953 0.663153C4.39779 1.08034 4.16691 1.6429 4.16688 2.22906C4.16688 2.37825 4.22614 2.52132 4.33163 2.62681C4.43712 2.7323 4.58019 2.79156 4.72937 2.79156Z" fill="white"/>
<path d="M0 2.73352C0 2.58434 0.0592634 2.44126 0.164753 2.33577C0.270242 2.23028 0.413316 2.17102 0.5625 2.17102H13.0625C13.2117 2.17102 13.3548 2.23028 13.4602 2.33577C13.5657 2.44126 13.625 2.58434 13.625 2.73352C13.625 2.8827 13.5657 3.02578 13.4602 3.13127C13.3548 3.23676 13.2117 3.29602 13.0625 3.29602H0.5625C0.413316 3.29602 0.270242 3.23676 0.164753 3.13127C0.0592634 3.02578 0 2.8827 0 2.73352ZM5.14594 4.77508C5.29512 4.77508 5.4382 4.83435 5.54368 4.93984C5.64917 5.04532 5.70844 5.1884 5.70844 5.33758V11.5876C5.70844 11.7368 5.64917 11.8798 5.54368 11.9853C5.4382 12.0908 5.29512 12.1501 5.14594 12.1501C4.99675 12.1501 4.85368 12.0908 4.74819 11.9853C4.6427 11.8798 4.58344 11.7368 4.58344 11.5876V5.33758C4.58344 5.1884 4.6427 5.04532 4.74819 4.93984C4.85368 4.83435 4.99675 4.77508 5.14594 4.77508ZM8.47937 4.77508C8.62856 4.77508 8.77163 4.83435 8.87712 4.93984C8.98261 5.04532 9.04187 5.1884 9.04187 5.33758V11.5876C9.04187 11.7368 8.98261 11.8798 8.87712 11.9853C8.77163 12.0908 8.62856 12.1501 8.47937 12.1501C8.33019 12.1501 8.18712 12.0908 8.08163 11.9853C7.97614 11.8798 7.91687 11.7368 7.91687 11.5876V5.33758C7.91687 5.1884 7.97614 5.04532 8.08163 4.93984C8.18712 4.83435 8.33019 4.77508 8.47937 4.77508Z" fill="white"/>
</svg>
